<svg width="247" height="65" viewBox="0 0 247 65" fill="none" xmlns="http://www.w3.org/2000/svg">
<path d="M14.0078 32.6484C14.0078 33.7682 14.151 34.7318 14.4375 35.5391C14.724 36.3464 15.1406 37.0104 15.6875 37.5312C16.2474 38.0521 16.9245 38.4362 17.7188 38.6836C18.526 38.931 19.444 39.0547 20.4727 39.0547C21.6966 39.0547 23.1419 38.9049 24.8086 38.6055C26.4753 38.306 28.3177 37.8438 30.3359 37.2188V46.3594C28.2396 47.0625 26.1953 47.5703 24.2031 47.8828C22.224 48.1953 20.2708 48.3516 18.3438 48.3516C15.987 48.3516 13.7799 48.0586 11.7227 47.4727C9.67839 46.8867 7.89453 45.9427 6.37109 44.6406C4.86068 43.3255 3.66927 41.6719 2.79688 39.6797C1.92448 37.6875 1.48828 35.3438 1.48828 32.6484C1.48828 30.0182 1.88542 27.7526 2.67969 25.8516C3.48698 23.9505 4.61979 22.388 6.07812 21.1641C7.54948 19.9271 9.30729 19.0156 11.3516 18.4297C13.4089 17.8438 15.6875 17.5508 18.1875 17.5508C19.724 17.5508 21.1042 17.6289 22.3281 17.7852C23.5651 17.9414 24.6784 18.1367 25.668 18.3711C26.6576 18.6055 27.5299 18.8724 28.2852 19.1719C29.0534 19.4583 29.737 19.7383 30.3359 20.0117V28.9961H24.457C23.793 28.0586 23.0508 27.3685 22.2305 26.9258C21.4232 26.4831 20.5898 26.2617 19.7305 26.2617C19.0013 26.2617 18.2917 26.4049 17.6016 26.6914C16.9245 26.9779 16.319 27.3945 15.7852 27.9414C15.2513 28.4883 14.8216 29.1589 14.4961 29.9531C14.1706 30.7344 14.0078 31.6328 14.0078 32.6484ZM64.5938 48H52.9141C52.5495 47.3229 52.1719 46.6068 51.7812 45.8516C51.3906 45.0833 51.013 44.2826 50.6484 43.4492C50.2839 42.6159 49.9388 41.7565 49.6133 40.8711C49.3008 39.9857 49.0339 39.0742 48.8125 38.1367H48.168V48H34.0664V40.207L36.4102 39.7578V28.6445L34.0664 28.1953V20.5H50.0625C52.1849 20.5 54.0143 20.5911 55.5508 20.7734C57.1003 20.9557 58.4089 21.2227 59.4766 21.5742C60.5573 21.9258 61.4297 22.3555 62.0938 22.8633C62.7578 23.3581 63.2721 23.9245 63.6367 24.5625C64.0143 25.1875 64.2682 25.8776 64.3984 26.6328C64.5286 27.388 64.5938 28.1888 64.5938 29.0352C64.5938 29.8945 64.5091 30.6758 64.3398 31.3789C64.1836 32.082 63.8971 32.7266 63.4805 33.3125C63.0638 33.8984 62.4909 34.4388 61.7617 34.9336C61.0456 35.4154 60.1276 35.8711 59.0078 36.3008C59.2422 36.7695 59.5872 37.3294 60.043 37.9805C60.5117 38.6185 61.0195 39.276 61.5664 39.9531C62.1133 40.6172 62.6536 41.2617 63.1875 41.8867C63.7344 42.5117 64.2031 43.0456 64.5938 43.4883V48ZM48.168 32.8438C48.8841 32.8438 49.5286 32.8112 50.1016 32.7461C50.6875 32.668 51.1823 32.5117 51.5859 32.2773C52.0026 32.0299 52.3216 31.6719 52.543 31.2031C52.7643 30.7344 52.875 30.1029 52.875 29.3086C52.875 28.5273 52.7643 27.9023 52.543 27.4336C52.3216 26.9648 52.0026 26.6068 51.5859 26.3594C51.1823 26.099 50.6875 25.9297 50.1016 25.8516C49.5286 25.7734 48.8841 25.7344 48.168 25.7344V32.8438ZM83.4023 48.3516C81.1107 48.3516 78.9622 48.1107 76.957 47.6289C74.9648 47.1341 73.2266 46.2943 71.7422 45.1094C70.2708 43.9115 69.1055 42.388 68.2461 40.5391C67.3997 38.6901 66.9766 36.4701 66.9766 33.8789C66.9766 31.3398 67.3997 29.1784 68.2461 27.3945C69.1055 25.5977 70.2773 24.1393 71.7617 23.0195C73.2461 21.8867 74.9844 21.0599 76.9766 20.5391C78.9688 20.0182 81.1107 19.7578 83.4023 19.7578C85.681 19.7578 87.8164 20.0182 89.8086 20.5391C91.8138 21.0599 93.5586 21.8867 95.043 23.0195C96.5404 24.1393 97.7188 25.5977 98.5781 27.3945C99.4375 29.1784 99.8672 31.3398 99.8672 33.8789C99.8672 35.5977 99.6719 37.1602 99.2812 38.5664C98.8906 39.9596 98.3372 41.2031 97.6211 42.2969C96.918 43.3776 96.0651 44.3151 95.0625 45.1094C94.0729 45.8906 92.9661 46.5417 91.7422 47.0625C90.5182 47.5703 89.2031 47.9089 87.7969 48.0781C86.3906 48.2604 84.9258 48.3516 83.4023 48.3516ZM83.4023 28.0781C82.6341 28.0781 81.9831 28.1758 81.4492 28.3711C80.9284 28.5664 80.4922 28.8203 80.1406 29.1328C79.8021 29.4453 79.5352 29.8034 79.3398 30.207C79.1445 30.6107 79.0013 31.0273 78.9102 31.457C78.832 31.8737 78.7799 32.2904 78.7539 32.707C78.7409 33.1107 78.7344 33.4688 78.7344 33.7812C78.7344 34.0807 78.7409 34.4388 78.7539 34.8555C78.7669 35.2591 78.8125 35.6888 78.8906 36.1445C78.9688 36.5872 79.099 37.0299 79.2812 37.4727C79.4635 37.9154 79.724 38.3125 80.0625 38.6641C80.4141 39.0156 80.8568 39.3021 81.3906 39.5234C81.9375 39.7318 82.6081 39.8359 83.4023 39.8359C84.1836 39.8359 84.8411 39.7318 85.375 39.5234C85.9219 39.3151 86.3646 39.0417 86.7031 38.7031C87.0547 38.3516 87.3281 37.9609 87.5234 37.5312C87.7188 37.1016 87.8555 36.6719 87.9336 36.2422C88.0247 35.7995 88.0768 35.3698 88.0898 34.9531C88.1159 34.5365 88.1289 34.1784 88.1289 33.8789C88.1289 33.5664 88.1159 33.2083 88.0898 32.8047C88.0768 32.388 88.0247 31.9648 87.9336 31.5352C87.8555 31.1055 87.7188 30.6888 87.5234 30.2852C87.3281 29.8685 87.0547 29.4974 86.7031 29.1719C86.3646 28.8464 85.9219 28.5859 85.375 28.3906C84.8411 28.1823 84.1836 28.0781 83.4023 28.0781ZM111.391 48.0195L103.891 28.625L101.098 28.1953V20.5H118.93V28.1953L116.898 28.625L120.082 38.8594L123.266 28.625L121.234 28.1953V20.5H139.066V28.1953L137.055 28.625L140.219 38.8594L143.402 28.625L141.371 28.1953V20.4023H154.887V28.1953L152.113 28.625L144.613 48.0195H131.547L127.992 37.4531L124.477 48.0195H111.391ZM174.203 48L173.227 43.3711H165.551L164.574 48H154.125V38.9375L156.391 38.4883L161.801 20.5H176.957L182.406 38.4883L184.652 38.9375V48H174.203ZM166.742 37.1992H172.035L169.379 26.3984L166.742 37.1992ZM218.109 48H206.43C206.065 47.3229 205.688 46.6068 205.297 45.8516C204.906 45.0833 204.529 44.2826 204.164 43.4492C203.799 42.6159 203.454 41.7565 203.129 40.8711C202.816 39.9857 202.549 39.0742 202.328 38.1367H201.684V48H187.582V40.207L189.926 39.7578V28.6445L187.582 28.1953V20.5H203.578C205.701 20.5 207.53 20.5911 209.066 20.7734C210.616 20.9557 211.924 21.2227 212.992 21.5742C214.073 21.9258 214.945 22.3555 215.609 22.8633C216.273 23.3581 216.788 23.9245 217.152 24.5625C217.53 25.1875 217.784 25.8776 217.914 26.6328C218.044 27.388 218.109 28.1888 218.109 29.0352C218.109 29.8945 218.025 30.6758 217.855 31.3789C217.699 32.082 217.413 32.7266 216.996 33.3125C216.579 33.8984 216.007 34.4388 215.277 34.9336C214.561 35.4154 213.643 35.8711 212.523 36.3008C212.758 36.7695 213.103 37.3294 213.559 37.9805C214.027 38.6185 214.535 39.276 215.082 39.9531C215.629 40.6172 216.169 41.2617 216.703 41.8867C217.25 42.5117 217.719 43.0456 218.109 43.4883V48ZM201.684 32.8438C202.4 32.8438 203.044 32.8112 203.617 32.7461C204.203 32.668 204.698 32.5117 205.102 32.2773C205.518 32.0299 205.837 31.6719 206.059 31.2031C206.28 30.7344 206.391 30.1029 206.391 29.3086C206.391 28.5273 206.28 27.9023 206.059 27.4336C205.837 26.9648 205.518 26.6068 205.102 26.3594C204.698 26.099 204.203 25.9297 203.617 25.8516C203.044 25.7734 202.4 25.7344 201.684 25.7344V32.8438ZM235.492 32.5898L240.902 31.4375V37.0039L235.492 35.832V40.1484C236.273 40.1484 237.029 40.0964 237.758 39.9922C238.487 39.875 239.164 39.7188 239.789 39.5234C240.414 39.3281 240.987 39.1003 241.508 38.8398C242.029 38.5794 242.478 38.2995 242.855 38H245.531V48H221.391V40.207L223.734 39.7578V28.6836L221.391 28.2344V20.5H245.531V30.5H242.855C242.478 30.2135 242.029 29.9401 241.508 29.6797C240.987 29.4193 240.414 29.1914 239.789 28.9961C239.164 28.8008 238.487 28.6445 237.758 28.5273C237.029 28.4102 236.273 28.3516 235.492 28.3516V32.5898Z" fill="white"/>
</svg>
